<?xml version="1.0" encoding="UTF-8"?><svg id="_レイヤー_2" xmlns="http://www.w3.org/2000/svg" viewBox="0 0 200 178.183"><defs><style>.cls-1{fill:#f3b3c9;}.cls-1,.cls-2,.cls-3{stroke-width:0px;}.cls-2{fill:#805121;}.cls-3{fill:#ea6d93;}</style></defs><g id="_レイヤー_1-2"><g id="logo-chi2025"><path class="cls-2" d="m24.453,170.805c-.568,2.276-1.416,4.29-7.037,4.388-5.267.092-11.031-4.362-11.16-11.716-.078-4.497,2.972-10.886,9.998-11.008,7.625-.133,7.669,5.227,7.669,5.227l1.971-.025s.029-5.483.04-5.608c.127-1.158-4.464-1.855-4.511-1.86-1.581-.171-2.974-.3-5.277-.26C.553,150.215-.038,161.648.002,163.936c.187,10.727,9.351,14.391,17.864,14.242,2.278-.04,5.518-.416,7.038-1.041.619-.263,1.032-.497,1.149-1.337.219-1.559.282-5.048.282-5.048l-1.882.052Z"/><path class="cls-2" d="m63.518,175.484c-1.579.028-1.984-.385-2.003-1.326-.01-.495-.331-6.017-.416-10.924-.086-4.907-.172-9.844-.12-10.956.045-1.096,1.059-1.201,1.697-1.243l-.028-1.413s-3.335.164-4.371.182-4.616-.026-4.616-.026l.027,1.397c.973-.05,1.785.222,1.873,1.345.089,1.109.216,8.372.216,8.372l-13.407.234s-.176-7.639-.146-8.264c.036-.896.371-1.406,2.05-1.545l-.013-1.374s-4.293.181-5.12.196-4.762-.023-4.762-.023l.026,1.414c1.518-.026,1.922.388,2.027,1.699.044.544.243,5.188.344,10.062.105,5.067.11,10.374.112,11.114.002,1.058-.507,1.343-.911,1.429-.311.072-1.519.149-1.519.149l.043,1.428s4.122-.19,5.211-.209,4.972.018,4.972.018l-.085-1.523c-1.41.025-1.97-.29-2.05-1.147-.097-1.038-.125-10.359-.125-10.359l13.407-.234s.121,8.74.116,10.231c-.005,1.001-.379,1.427-2.029,1.455l.025,1.415s3.545-.167,4.663-.186,5.001.04,5.001.04l-.091-1.428Z"/><path class="cls-2" d="m77.804,149.463c-1.124.02-5.08-.018-5.08-.018l.046,1.427c1.438-.022,2.171.47,2.252,1.681.075,1.11.414,19.72.26,21.177-.074.86-.427,1.463-2.159,1.596l.025,1.395s3.512-.166,4.911-.19,5.268.049,5.268.049l-.042-1.434c-1.537-.057-1.932-.567-1.995-1.033-.155-1.378-.488-20.55-.434-21.663.051-1.26.474-1.759,2.198-1.789l-.009-1.396s-4.119.178-5.243.198Z"/><path class="cls-2" d="m115.319,169.055c-.551,2.135-1.752,2.789-4.139,3.075-1.426.193-8.751.359-8.751.359,5.104-3.709,13.105-9.709,12.988-16.423-.086-4.917-4.036-7.785-10.567-7.671-3.913.068-6.085.884-7.408,1.51-.509.296-.67.552-.661,1.052l.138,4.679,1.84-.097s-.216-2.143,1.476-3.465c1.039-.812,2.159-1.212,3.976-1.244,1.195-.021,5.101.363,5.202,6.181.066,3.771-2.036,7.086-4.839,10.017-2.144,2.242-8.292,7.098-8.292,7.098-1.008.731-.801,2.102.336,2.082l16.169-.282c2.33-.041,3.614-.063,3.839-1.437.222-1.342.297-5.471.297-5.471l-1.605.039Z"/><path class="cls-2" d="m171.437,168.076c-.551,2.135-1.752,2.789-4.139,3.075-1.426.193-8.751.359-8.751.359,5.104-3.709,13.105-9.709,12.988-16.423-.086-4.917-4.036-7.785-10.567-7.671-3.913.068-6.085.884-7.408,1.51-.509.296-.67.552-.661,1.052l.138,4.679,1.84-.097s-.216-2.143,1.476-3.465c1.039-.812,2.159-1.212,3.976-1.244,1.195-.021,5.101.363,5.202,6.181.066,3.771-2.036,7.086-4.839,10.017-2.144,2.242-8.292,7.098-8.292,7.098-1.008.731-.801,2.102.336,2.082l16.169-.282c2.33-.041,3.614-.063,3.839-1.437.222-1.342.297-5.471.297-5.471l-1.605.039Z"/><path class="cls-2" d="m197.452,159.012c-2.456-2.166-7.013-3.136-12.211-2.756l.41-4.956,9.106-.159c2.895-.051,2.66,1.848,2.66,1.848l1.794-.031-.087-4.806c-.007-.382-.019-1.108-1.099-.987-.355.04-1.694.228-2.745.247l-11.208.196c-.869.015-1.095.453-1.132.828l-.737,10.425c.014.78.518,1.22,1.186,1.099,3.674-.668,7.518-.063,9.462,1.539,1.233,1.016,1.873,2.413,1.904,4.151.074,4.268-2.847,6.96-5.924,7.014-3.376.059-4.948-1.442-5.03-4.578l-1.884.029s.116,4.234.126,4.812c.013.739.094,1.294,1.03,1.707,1.115.446,3.649.525,4.833.504,4.436-.077,7.553-1.302,9.682-3.554,1.707-1.806,2.515-4.178,2.403-7.048-.088-2.259-.941-4.118-2.537-5.524Z"/><path class="cls-2" d="m134.893,147.87c-6.931.121-10.973,5.762-10.81,15.091.009.538.045,1.116.112,1.719.164-1.162.915-2.367,1.585-2.378s1.18.666,1.18.666c0,0,.354-.702,1.099-.749.445-.028,1.139.398,1.557,1.149-.05-.606-.083-1.219-.099-1.831-.175-6.567,1.544-11.246,4.576-11.299,3.993-.07,5.923,6.293,6.027,12.235.117,6.708-1.755,11.248-4.656,11.299-.783.014-1.482-.217-2.102-.642.314.855.45,1.557.443,1.695-.045.905-.583,1.185-.676,1.227.512.067,1.05.097,1.616.087,6.828-.119,10.97-5.916,10.809-15.128-.112-6.44-2.973-13.274-10.663-13.14Z"/><path class="cls-3" d="m131.071,171.532c-1.071-.936-3.209-.842-3.209-.842,0,0-.531,2.322.689,3.91,1.073,1.397,2.377,1.483,2.377,1.483l-.148-1.752,1.872.657s-.155-2.209-1.582-3.456Z"/><path class="cls-3" d="m123.4,172.947c-.812,1.905-.351,2.788-.351,2.788l1.629-.938.007,1.82s1.755-.525,2.443-2.691c.431-1.357-.307-3.272-.307-3.272,0,0-2.535.216-3.42,2.293Z"/><path class="cls-3" d="m132.162,167.777l.993-1.601s-1.887-.195-3.34.86c-1.173.852-1.701,3.057-1.701,3.057,0,0,2.247,1.132,4.098-.16,1.701-1.188,1.708-2.029,1.708-2.029l-1.756-.128Z"/><path class="cls-3" d="m127.305,169.515s1.971-1.382,1.761-3.629c-.199-2.129-1.045-2.502-1.045-2.502l-.957,1.477-1.231-1.437s-.855,1.138-.459,3.256c.274,1.469,1.931,2.835,1.931,2.835Z"/><path class="cls-3" d="m126.657,170.068s-.683-2.485-2.896-2.928c-2.215-.44-2.819.229-2.819.229l1.242,1.376-1.912.53s.906,1.386,3.054,1.633c1.413.163,3.331-.84,3.331-.84Z"/><path class="cls-1" d="m45.732,105.239s-3.797-2.939-7.319-2.001c-3.341.891-3.668,3.14-3.668,3.14l3.026.812-2.233,2.327s3.308,1.305,6.208-.049c2.294-1.072,3.986-4.229,3.986-4.229Z"/><path class="cls-1" d="m32.571,103.048s-.759-3.641-3.352-4.996c-2.605-1.361-3.946-.386-3.946-.386l1.238,2.253-2.89.233s1.056,2.511,4.231,3.551c1.973.646,4.72-.654,4.72-.654Z"/><path class="cls-1" d="m158.662,40.64s2.957,2.251,6.706,1.613c3.969-.675,5.407-3.161,5.407-3.161l-3.701-1.029,2.599-2.734s-3.597-1.086-6.793.12c-2.52.952-4.218,5.192-4.218,5.192Z"/><path class="cls-1" d="m172.961,42.327s1.654,3.127,4.587,3.554c2.841.414,4.385-.841,4.385-.841l-2.129-1.601,2.798-.868s-1.459-2.193-4.106-2.402c-2.982-.235-5.533,2.157-5.533,2.157Z"/><path class="cls-3" d="m156.69,79.431c1.543-5.627,2.32-11.563,2.213-17.685C158.298,27.1,129.619-.595,94.974.01c-22.454.392-41.988,12.577-52.79,30.536-.8,1.603-.8,2.52-.573,3.265.481,1.663,2.102,2.938,7.895,3.972,4.901.874,10.874,2.212,17.467,3.948-1.062-1.933-1.886-5.865-2.721-8.34-.733.392-3.028.675-3.341.604,0,0,.111-2.399.889-3.946.476-.947,1.505-1.72,2.495-1.92h.007c1.65-.332,3.627.013,4.341.272-.789,2.451-2.57,4.084-2.57,4.084.371,1.217.842,2.783,1.888,4.687,1.282,2.332,3.154,4.707,4.504,6.057,9.429,2.663,19.785,6.037,29.907,9.957-.49,1.216-.958,2.546-1.354,3.959-5.21-2.073-9.996-3.919-13.383-5.225-8.296-3.198-23.009-6.533-33.693-8.614-.194,1.103-.524,3.11-.524,3.11,0,0,.767.447.922,2.115.088.948-.161,1.483-.302,1.84-.263-.508-.737-1.872-2.104-2.383-1.815-.678-3.011-.039-3.212.016.114-.406.31-1.056.918-1.476.961-.669,1.587-.915,1.587-.915l1.039-2.63c-5.835-1.109-10.175-1.784-11.079-1.769-3.382.059-4.338,1.953-5.258,4.723-1.295,3.899-2.782,12.586-2.687,18,.605,34.646,29.283,62.339,63.927,61.735,24.839-.434,46.106-15.297,55.932-36.445.163-.351.025-.681-.274-.939-1.373-1.185-5.479-4.713-9.953-8.409,0,0,2.747-2.194,3.844-2.702,3.809,1.579,7.446,2.305,9.026,2.569.527.088.79.042.948-.317ZM59.921,34.059c-1.391.298-5.744.483-7.842-.616-1.695-.892-2.764-2.298-2.735-2.812l3.363-.943-2.978-1.815s.877-2.128,3.772-2.498c.027.041.972,1.538,1.729,2.191,1.335,1.152,2.851,2.102,4.067,2.477.616.19,1.323.27,1.365.271-.535,1.386-.732,3.126-.741,3.745Zm3.729-6.702c-1.057.298-2.475,1.687-2.601,2.091-1.764-.167-3.057-.814-4.814-2.146-1.345-1.02-1.888-2.159-2.105-2.619-.864-1.825-.885-3.708-.677-4.361,0,0,2.47.216,3.999.745-.126-2.183.127-3.767.127-3.767,2.504.674,5.445,2.328,5.982,6.003.06.408.295,2.431.089,4.053Zm7.816-5.297c-.144,2.121-1.547,4.264-2.588,5.441-1.028-.414-4.31-.465-4.305-.53.072-1.047,0-2.419-.012-2.553-.022-.399-.117-1.724-.38-2.769-.266-1.06-.9-2.021-.912-2.033-.057-2.378,1.304-3.234,1.568-3.635l2.616,3.834,1.892-3.413c.589.339,1.802,1.638,2.088,3.954.064.527.071,1.101.034,1.703Zm85.76,45.956l-1.492,2.163,2.271,1.157c-.319.405-2.198,2.726-4.176,2.986-3.77.497-5.265-.659-5.327-.692.186-2.393-.498-3.478-.61-3.61.174-.216.494-1.418,3.064-2.703,2.36-1.122,4.913-.605,6.271.699Zm-7.21-7.029l-.047,2.903s1.054-.925,2.906-1.284c.272.495.512,2.681.378,3.305-.035.009-.971.189-1.982.56-.829.304-1.487.614-2.237,1.206-.233.184-1.109,1.131-1.577,1.74-.059.076-.653-.622-1.824-1.232-.507-1.225.058-4.654,1.555-5.931,1.213-1.032,2.434-1.447,2.828-1.267Zm-10.662-11.309c2.171-3.611,6.05-4.932,6.05-4.932l-.423,4.633,3.852-2.115s1.369,2.561-1.647,6.91c-2.676,3.859-8.827,3.922-8.827,3.922,0,0-.723-5.554.995-8.419Zm-13.98,13.897c2.861,1.559,6.244,3.513,9.912,5.845-2.424-.531-5.113-.878-7.837-.779-.973.035-3.027.305-3.08.314.764-1.502.949-4.056,1.005-5.38Zm-6.289-14.95s3.587,3.065,3.212,14.297c-.366,10.966-12.291,16.787-12.291,16.787,0,0-6.445-8.042-6.792-15.115-.533-10.872,6.002-17.056,6.002-17.056l4.047,8.749,5.822-7.661Zm-19.369-35.293c5.192-2.6,9.469-.384,9.469-.384l-3.49,3.088,4.472.674s-.328,2.485-5.178,4.527c-4.305,1.805-9.651-1.061-9.651-1.061,0,0,1.413-5.359,4.379-6.844Zm-22.952,5.794l4.369-1.015-3.173-2.671s1.77-2.123,6.913-1.006c5.142,1.117,6.64,6.935,6.64,6.935,0,0-4.511,2.137-7.806,1.759-4.987-.573-6.942-4.002-6.942-4.002Zm15.304,12.2c-1.738,3.828-5.95,5.276-5.95,5.276l.325-4.334-4.147,1.881s-.848-1.978,1.759-6.555c2.605-4.57,8.355-4.617,8.355-4.617,0,0,1.029,5.331-.341,8.349Zm-4.12-18.483c-1.864-4.417.695-8.699.695-8.699l2.808,3.387,1.194-3.801s2.306.876,3.652,5.501c1.471,5.055-2.922,10.063-2.922,10.063,0,0-4.138-3.397-5.427-6.452Zm9.198,18.916c-3.918-3.463-2.546-9.198-2.546-9.198,0,0,4.877-.379,7.417,1.719,3.218,2.649,4.602,7.121,4.602,7.121l-4.467-1.094,1.22,4.047s-2.973.281-6.227-2.595Zm-44.246,21.475c-.93,1.403-2.821,1.786-4.224.855-1.403-.93-1.786-2.821-.855-4.224s2.821-1.786,4.224-.855c1.403.93,1.786,2.821.855,4.224Zm9.218,52.781c-3.228,1.21-6.918-.049-6.918-.049l2.631-2.755-3.18-1.128s.397-1.735,4.544-2.986c3.675-1.109,7.688,2.258,7.688,2.258,0,0-2.212,3.707-4.765,4.66Zm11.739-11.772c-1.363,2.963-3.994,3.291-3.994,3.291l.221-2.542-2.256,1.013s-.884-.989.677-3.751c1.382-2.451,5.322-2.782,5.322-2.782,0,0,.864,2.956.03,4.77Zm8.828-33.391s5.309-1.948,13.728,2.887c9.742,5.595,9.171,18.33,9.171,18.33,0,0-10.172,1.759-16.651-1.077-9.819-4.315-11.846-10.934-11.846-10.934l8.805-1.053-3.208-8.154Zm1.02,47.607l3.852-8.689-8.735.631s-.387-5.136,6.804-11.664c8.32-7.553,20.477-2.889,20.477-2.889,0,0-1.239,10.131-5.915,15.451-6.851,7.794-16.483,7.16-16.483,7.16Zm43.422,4.113l-7.585-4.853-.537,8.6s-5.046-.37-10.461-9.17c-5.892-9.575,1.115-21.019,1.115-21.019,0,0,9.745,2.84,13.643,8.757,5.991,9.096,3.825,17.686,3.825,17.686Zm8.399-31.311l7.521,4.475s-3.486,5.386-12.25,5.686c-9.965.341-18.556-8.316-18.556-8.316,0,0,5.803-9.989,12.79-11.126,8.84-1.461,18.577,3.601,18.577,3.601l-8.082,5.68Zm7.711-9.263c.423-.266.862-.702,1.106-.983.773-1.103.978-1.734,1.065-2.099.417.137,2.793,1.434,2.251,4.153-.102.51-.287.631-.368.569,0,0-3.002-1.186-4.054-1.64Z"/></g></g></svg>